<svg width="47" height="44" fill="none" xmlns="http://www.w3.org/2000/svg"><path d="M.579 18.056c-.037-.037-.056-.137-.056-.299 0-.211.019-.317.056-.317.112 0 .255-.019.43-.056.186-.038.36-.087.522-.15.174-.062.274-.13.299-.205.087-.249.13-.815.13-1.699V8.273c0-.76-.043-1.27-.13-1.531-.025-.1-.118-.18-.28-.243a1.984 1.984 0 00-.523-.168 2.461 2.461 0 00-.467-.056c-.05 0-.075-.093-.075-.28 0-.174.025-.286.075-.336l1.232.074c.411.013.828.02 1.251.02.274 0 .654-.007 1.14-.02.485-.024 1.07-.05 1.754-.074a126.11 126.11 0 013.137-.056c.025.186.062.41.112.672.05.261.112.554.187.877l.242 1.102c-.062.062-.193.093-.392.093-.137 0-.224-.043-.261-.13-.41-1.108-1.207-1.662-2.39-1.662h-.97c-.934 0-1.407.08-1.42.243-.074.348-.112.852-.112 1.512v2.931c0 .075.274.112.822.112h1.045c.71 0 1.14-.03 1.289-.093.136-.062.242-.28.317-.653.037-.162.075-.318.112-.467.012-.087.112-.131.299-.131.174 0 .292.031.354.093v3.53c-.05.049-.168.074-.354.074-.162 0-.262-.05-.299-.15-.05-.174-.093-.317-.13-.429-.038-.125-.07-.23-.094-.317a1.587 1.587 0 00-.112-.225c-.013-.024-.075-.074-.187-.149-.174-.1-.747-.15-1.717-.15-.897 0-1.345.05-1.345.15v2.894c0 .685.056 1.189.168 1.512.05.162.473.243 1.27.243h.69c.984 0 1.725-.13 2.222-.392.2-.1.424-.317.673-.653a3.93 3.93 0 00.578-1.14c.025-.074.112-.111.262-.111.274 0 .448.037.523.112l-.598 1.661a9.66 9.66 0 00-.243.766 5.177 5.177 0 00-.168.728c-.498 0-1.524-.019-3.08-.056a64.468 64.468 0 00-1.998-.037c-.548 0-.983.006-1.307.018l-2.483.075zm21.788.037c-.186 0-.386-.143-.597-.43l-7.431-9.857v7.561c0 .722.05 1.233.15 1.531.05.1.174.193.373.28.211.075.43.137.653.187.237.05.405.075.504.075.038 0 .056.087.056.261.013.174.007.293-.018.355l-2.334-.112c-.224 0-.492.012-.803.037l-.859.038a10.17 10.17 0 00-.56.037c-.05-.05-.075-.156-.075-.317 0-.2.025-.3.075-.3.15 0 .33-.018.542-.055.211-.05.41-.112.597-.187.2-.087.33-.193.392-.317.125-.25.187-.772.187-1.569V7.993c0-.66-.069-1.114-.206-1.363-.024-.063-.136-.119-.336-.168a8.14 8.14 0 00-.634-.131 3.068 3.068 0 00-.504-.056c-.05 0-.081-.093-.094-.28 0-.187.025-.305.075-.355.66.025 1.17.05 1.53.075.374.012.604.018.692.018.211 0 .454-.006.728-.018.286-.025.603-.05.952-.075.274.498.716 1.164 1.325 1.998.61.834 1.332 1.798 2.166 2.894a133.22 133.22 0 012.633 3.547c.012-.075.019-.174.019-.299.012-.136.018-.292.018-.466V8.235c0-.672-.062-1.17-.186-1.493-.038-.1-.15-.187-.337-.262a3.015 3.015 0 00-.597-.168 3.125 3.125 0 00-.523-.056c-.05 0-.08-.087-.093-.261 0-.187.018-.305.056-.355.66.05 1.182.087 1.568.112.398.013.66.019.784.019.162 0 .349-.006.56-.019.212-.012.442-.031.691-.056.51-.037.828-.056.953-.056a.971.971 0 01.037.299c0 .211-.025.317-.075.317-.112 0-.274.025-.485.075a3.465 3.465 0 00-.616.168c-.2.075-.337.168-.411.28-.137.349-.206.865-.206 1.55v7.076c0 .224.007.554.02.99.012.435.03.976.055 1.624-.05.05-.187.074-.41.074zM23.045 42.078c-.052-.052-.078-.163-.078-.332 0-.26.026-.39.078-.39.104 0 .254-.02.45-.06.194-.038.377-.09.546-.155.17-.078.267-.15.293-.215.078-.3.117-.873.117-1.719v-7.383c0-.729-.039-1.237-.117-1.523-.026-.078-.13-.156-.313-.235a2.515 2.515 0 00-.546-.214 1.556 1.556 0 00-.45-.098c-.052 0-.078-.117-.078-.352 0-.208.02-.332.059-.37.586.025 1.12.051 1.601.077.482.013.905.02 1.27.02.846 0 1.94-.02 3.281-.059.677-.013 1.263-.02 1.758-.02.508-.012.931-.019 1.27-.019l.156.82c.09.482.228 1.172.41 2.07-.065.066-.215.099-.45.099-.142 0-.234-.046-.273-.137a2.566 2.566 0 00-.703-.899 3.533 3.533 0 00-.996-.644 2.376 2.376 0 00-1.035-.254h-.742c-.834 0-1.257.085-1.27.254-.026.156-.052.364-.078.625-.013.247-.02.547-.02.898v3.008c0 .078.28.117.84.117h1.036c.82 0 1.263-.026 1.328-.078.065-.065.117-.254.156-.566.026-.209.065-.397.117-.567.013-.09.11-.136.293-.136.221 0 .365.032.43.097v3.692c-.052.052-.189.078-.41.078-.17 0-.274-.052-.313-.156-.156-.508-.26-.82-.312-.938-.053-.091-.091-.13-.118-.117-.013 0-.052-.026-.117-.078-.182-.104-.69-.157-1.523-.157-.938 0-1.406.06-1.406.176v3.008c0 .69.045 1.224.136 1.602.026.104.137.195.332.273.196.078.41.137.645.176.234.039.416.059.547.059.052 0 .078.123.078.37 0 .13-.013.248-.04.352-1.562-.078-2.558-.117-2.988-.117l-2.851.117zm22.656.059a8.203 8.203 0 01-1.758-.176c-.52-.13-.937-.273-1.25-.43a3.532 3.532 0 01-.957-.703c-.156-.156-.3-.306-.43-.45a7.32 7.32 0 01-.429-.526 79.12 79.12 0 00-.567-.86c-.234-.364-.54-.846-.917-1.445-.508-.768-.847-1.185-1.016-1.25a.665.665 0 00-.215-.02c-.117 0-.176.105-.176.313v2.656c0 .69.046 1.224.137 1.602.026.104.137.195.332.273.195.078.41.137.645.176.234.039.416.059.547.059.052 0 .078.123.078.37 0 .13-.013.248-.04.352l-1.913-.098a10.876 10.876 0 00-1.075-.02l-2.851.118c-.052-.052-.078-.163-.078-.332 0-.26.026-.39.078-.39.104 0 .254-.02.449-.06a3.36 3.36 0 00.547-.155c.17-.078.267-.15.293-.215.078-.3.117-.873.117-1.719v-7.383c0-.729-.04-1.237-.117-1.523-.026-.078-.13-.156-.313-.235a2.515 2.515 0 00-.547-.214 1.556 1.556 0 00-.449-.098c-.052 0-.078-.117-.078-.352 0-.208.02-.332.059-.37.599.025 1.133.051 1.601.077.482.013.905.02 1.27.02a74.94 74.94 0 011.465-.02h1.27c.52 0 1.04.065 1.562.196.533.13 1.022.332 1.465.605.442.26.794.6 1.054 1.016.274.403.41.892.41 1.465 0 .573-.117 1.106-.351 1.601-.235.495-.54.912-.918 1.25-.365.339-.742.573-1.133.703-.104.04-.124.111-.059.215.287.482.508.847.664 1.094.157.247.287.45.391.605.117.144.254.326.41.547.157.209.378.528.664.957.222.313.482.625.781.938.313.3.645.553.997.761.364.196.71.294 1.035.294.052.052.078.169.078.351a.871.871 0 01-.078.39c-.091.014-.195.02-.313.02-.104.013-.228.02-.37.02zm-6.894-6.934h.527c.508 0 .898-.221 1.172-.664.286-.443.43-1.029.43-1.758 0-1.732-.606-2.597-1.817-2.597-.456 0-.755.052-.898.156-.156.117-.235.755-.235 1.914v2.11c0 .364.072.598.215.702.156.092.358.137.606.137z" fill="#F5C97E"/><path d="M10.135 32.94l31.068-20.712" stroke="#F5C97E" stroke-width="1.5" stroke-linecap="round"/></svg>