<svg width="545" height="176" fill="none" xmlns="http://www.w3.org/2000/svg"><path d="M469 112.5s-.157 17.541 7.234 24.595C483.624 144.149 502 144 502 144s-18.376-.149-25.766 6.905C468.843 157.959 469 175.5 469 175.5s.157-17.541-7.234-24.595C454.376 143.851 436 144 436 144s18.376.149 25.766-6.905C469.157 130.041 469 112.5 469 112.5z" fill="#F5C97E"/><path d="M469 0s-.361 42.32 16.659 59.34C502.679 76.36 545 76 545 76s-18.132-1.467-35.746 3.5c-8.752 2.468-17.945 7.51-23.595 13.16-7.044 7.044-12.311 18.744-14.659 29.662-3.324 15.461-2 29.678-2 29.678s1.686-21.901-4.5-40.5c-2.434-7.318-7.354-14.035-12.159-18.84-4.119-4.119-8.718-8.326-14.841-10.66-19.182-7.313-44.5-6-44.5-6s42.321.36 59.341-16.66C469.361 42.32 469 0 469 0zM76 0s-.36 42.32 16.66 59.34C109.678 76.36 152 76 152 76s-18.132-1.467-35.746 3.5c-8.752 2.468-17.945 7.51-23.595 13.16-7.044 7.044-12.312 18.744-14.659 29.662C74.675 137.783 76 152 76 152s.36-42.321-16.66-59.34C42.32 75.64 0 76 0 76s42.32.36 59.34-16.66C76.36 42.32 76 0 76 0z" fill="#F5C97E"/><path d="M76 112.5s-.15 17.541 6.905 24.595C89.959 144.149 107.5 144 107.5 144s-17.54-.149-24.595 6.905C75.85 157.959 76 175.5 76 175.5s.15-17.541-6.905-24.595C62.041 143.851 44.5 144 44.5 144s17.54.149 24.595-6.905C76.15 130.041 76 112.5 76 112.5z" fill="#F5C97E"/><path d="M131.7 77h282.6c29.934 0 54.2 24.266 54.2 54.2 0 7.069-5.731 12.8-12.8 12.8H90.3c-7.07 0-12.8-5.731-12.8-12.8 0-29.934 24.266-54.2 54.2-54.2z" fill="url(#a)" stroke="#F5C97E" stroke-width="2"/><defs><linearGradient id="a" x1="76.5" y1="145" x2="202.635" y2="-76.185" gradientUnits="userSpaceOnUse"><stop stop-color="#08090B"/><stop offset="1" stop-color="#272E34"/></linearGradient></defs></svg>