<svg width="406" height="100" fill="none" xmlns="http://www.w3.org/2000/svg"><path d="M55.736 1h295.528c29.934 0 54.2 24.266 54.2 54.2 0 7.07-5.731 12.8-12.8 12.8H14.336c-7.07 0-12.8-5.73-12.8-12.8 0-29.934 24.266-54.2 54.2-54.2z" fill="url(#a)" stroke="#F5C97E" stroke-width="2"/><path d="M.02 36.5s-.155 17.54 7.132 24.595C14.438 68.15 32.556 68 32.556 68s-18.118-.15-25.404 6.905C-.135 81.959.02 99.5.02 99.5s.154-17.54-7.132-24.595C-14.4 67.85-32.516 68-32.516 68s18.117.15 25.404-6.905C.174 54.041.02 36.5.02 36.5z" fill="#F5C97E"/><path d="M.02-76s-.373 42.32 17.207 59.34C34.807.36 78.52 0 78.52 0S59.79-1.467 41.598 3.5c-9.04 2.468-18.535 7.51-24.37 13.16C9.95 23.703 4.51 35.403 2.085 46.321-1.348 61.783.02 76 .02 76s.372-42.32-17.208-59.34C-34.768-.36-78.48 0-78.48 0s43.713.36 61.292-16.66C.392-33.68.02-76 .02-76zM405.947-76s-.372 42.32 17.208 59.34C440.735.36 484.447 0 484.447 0s-18.728-1.467-36.921 3.5c-9.041 2.468-18.535 7.51-24.371 13.16-7.276 7.044-12.717 18.744-15.142 29.662C404.579 61.783 405.947 76 405.947 76s1.742-21.901-4.648-40.5c-2.513-7.318-7.595-14.035-12.559-18.84-4.254-4.119-9.005-8.326-15.329-10.66-19.813-7.313-45.964-6-45.964-6s43.713.36 61.293-16.66S405.947-76 405.947-76z" fill="#F5C97E"/><path d="M405.947 36.5s-.161 17.54 7.472 24.595C421.052 68.15 440.033 68 440.033 68s-18.981-.15-26.614 6.905c-7.633 7.054-7.472 24.595-7.472 24.595s.162-17.54-7.471-24.595C390.842 67.85 371.862 68 371.862 68s18.98.15 26.614-6.905c7.633-7.054 7.471-24.595 7.471-24.595z" fill="#F5C97E"/><defs><linearGradient id="a" x1=".536" y1="69" x2="124.562" y2="-155.64" gradientUnits="userSpaceOnUse"><stop stop-color="#08090B"/><stop offset="1" stop-color="#272E34"/></linearGradient></defs></svg>