<svg width="93" height="43" fill="none" xmlns="http://www.w3.org/2000/svg"><path d="M21.749 42.136c-1.498 0-3.83-.043-6.998-.13-1.584-.057-3.024-.1-4.32-.129a67.07 67.07 0 00-3.412 0l-5.226.13c-.087-.087-.13-.317-.13-.691 0-.375.043-.562.13-.562.288 0 .633-.043 1.036-.13a12.33 12.33 0 001.21-.302c.403-.144.648-.302.734-.475.202-.317.303-1.67.303-4.06V19.459c0-1.9-.101-3.21-.303-3.93-.057-.173-.273-.317-.648-.432a7.426 7.426 0 00-1.21-.346 5.574 5.574 0 00-1.036-.13c-.115 0-.173-.187-.173-.561 0-.346.058-.576.173-.691.26 0 .691.029 1.296.086.634.029 1.31.072 2.03.13.72.028 1.34.043 1.858.043.921 0 1.842-.029 2.764-.087.921-.086 1.67-.143 2.246-.172.058.23.086.446.086.648 0 .403-.057.604-.172.604-.173 0-.476.058-.907.173a7.414 7.414 0 00-1.21.346c-.374.115-.59.244-.648.388-.259.98-.389 2.319-.389 4.018V35.83c0 1.526.13 2.793.39 3.801.086.288 1.065.432 2.936.432h2.074c2.649 0 4.463-.245 5.442-.734.432-.23.907-.735 1.426-1.512.547-.806.979-1.757 1.296-2.851.057-.173.259-.26.604-.26.547 0 .907.087 1.08.26-.086.23-.23.59-.432 1.08a78.163 78.163 0 00-.95 2.678 70.81 70.81 0 00-.562 1.77c-.201.663-.33 1.21-.388 1.642zM24.384 42.093c-.116-.115-.173-.331-.173-.648 0-.403.057-.605.173-.605.345 0 .791-.072 1.338-.216.548-.144.922-.345 1.124-.604.316-.403.633-.936.95-1.599.345-.662.705-1.483 1.08-2.462l7.515-19.308c.173-.431.274-.734.303-.907.057-.172.1-.316.13-.431.057-.145.158-.375.302-.692.201-.403.403-.72.605-.95.201-.23.532-.345.993-.345l.389.13 8.639 22.806c.259.662.49 1.252.69 1.77.231.52.418.966.562 1.34.116.288.36.547.735.777.403.202.806.375 1.21.519.431.115.762.172.992.172.116 0 .173.274.173.821a.71.71 0 01-.043.216.71.71 0 01-.043.216c-1.44-.058-2.563-.1-3.37-.13a31.37 31.37 0 00-1.382-.086l-5.01.216c-.115-.115-.173-.346-.173-.691.029-.374.101-.562.216-.562.346 0 .778-.072 1.296-.216.518-.144.82-.33.907-.561a1.42 1.42 0 00.043-.346 1.42 1.42 0 00.044-.345c0-.374-.044-.806-.13-1.296-.087-.518-.187-.922-.303-1.21l-1.943-5.356c-.087-.115-.173-.172-.26-.172a42.805 42.805 0 00-3.282-.13c-.749 0-1.584.029-2.505.086-.893.03-1.887.072-2.98.13l-.217.13-1.857 4.751c-.288.72-.49 1.325-.605 1.814-.086.49-.13.878-.13 1.166 0 .404.116.692.346.864.26.202.677.375 1.253.519.576.115.993.172 1.252.172.087 0 .13.173.13.519.029.345.014.59-.043.734l-4.45-.216a13.05 13.05 0 00-2.375.043c-.749.058-1.454.115-2.116.173zm12.785-12.958a60.38 60.38 0 003.93-.13l.13-.216-3.498-9.546-3.715 9.633c0 .115.029.172.086.172.749.03 1.368.058 1.858.087h1.209zM84.458 6.244c2.378-4.05 8.53-3.021 8.542-3.082-.264 1.409-1.673 2.642-2.378 3.258-.563.493-1.585.676-2.025.705.282.141.528.353.616.44-.213.07-1.497.147-2.113.176l.969.529c-.5.235-1.692 1.003-2.466 2.2-.775 1.198-2.318 1.556-2.993 1.586l1.408.176c-.916 1.479-3.258 2.26-4.315 2.465l1.41.088c-1.068.593-2.882 1.071-3.954 1.313.623-1.099 2.117-3.306 5.274-6.331 2.664-2.554 6.34-4.755 7.485-5.283-1.438.498-4.878 2.289-7.837 5.106-2.744 2.613-4.68 5.066-5.525 6.274-.014-.249-.002-.665.065-1.342.141-1.41.411-2.584.529-2.995l.175 1.233c.423-2.184 1.937-3.786 2.642-4.315l.089 1.585c.264-2.553 2.465-3.521 4.402-5.018v1.232zM65.762 11.637c4.164 0 7.936 1.677 10.68 4.391a13.75 13.75 0 00-.173.254c-.108.17-.21.335-.309.492a14.272 14.272 0 00-10.198-4.27c-7.906 0-14.316 6.41-14.316 14.315 0 7.905 6.41 14.313 14.316 14.313 7.905 0 14.314-6.408 14.314-14.313a14.26 14.26 0 00-3.625-9.52 13.038 13.038 0 00.46-.784 15.126 15.126 0 014.033 10.303C80.944 35.203 74.147 42 65.762 42c-8.385 0-15.183-6.797-15.183-15.181 0-8.385 6.798-15.182 15.183-15.182zM60.4 39.153c2.515 1.086 5.055 1.236 7.086 1.001-.564.073-1.14.11-1.724.11-1.906 0-3.719-.397-5.362-1.111zm10.432.125c-.738.355-1.916.711-3.346.876 1.169-.15 2.29-.45 3.345-.88l.001.004zm-5.07-25.906a13.41 13.41 0 019.727 4.162c-.289.43-1.184 2.162-1.597 2.975.07-.005 1.111-1.127 2.06-2.466a13.395 13.395 0 013.257 8.776c0 5.632-3.464 10.454-8.378 12.456l-.087-.438c-1.057-.634-2.847-2.847-3.61-3.874-.07-3.028.675-3.962 1.056-4.05 3.17.351 3.083-.088 3.347-.352.211-.212.03-.91-.088-1.234.563-.422.646-.587.616-.616l-.176-.352c.493-.282.499-.47.44-.529l-.264-.528c.986-.282 1.057-.587.97-.704-.441-.528-1.322-1.85-1.322-2.201-.07-.212.206-.616.352-.792v-2.026c-.352-.03-.656-.589-.352-.969.564-.704.264-1.383.088-1.584-.265-.303-4.244-2.589-6.428-2.73-2.184-.14-4.198 1.174-4.932 1.849-.264-.264-.705-.617-1.409-.529-2.042.494-2.2 2.26-2.024 3.082-.206.294-.564 1.075-.353 1.85.212.774 1.32 1.32 1.849 1.496-.07 2.183 1.585 3.757 2.378 4.314-.07.212-.94.764-1.322.97.353.14 1.087-.353 1.41-.617-.141.211-.705 1.086-.969 1.497.282-.14.998-.998 1.321-1.409-.14.493-.528 1.439-.704 1.85.423-.283.998-1.645 1.233-2.29.352 1.144.528 2.29-.97 4.666-1.408 2.026-2.289 3.17-2.905 4.755a13.434 13.434 0 01-5.661-10.962c0-7.426 6.02-13.446 13.447-13.446zM60.4 39.152l-.112-.048.112.049zm-.687-.322zm-.56-.3zm-.12-.067zm-.558-.342l-.08-.053.08.053zm17.407-20.158c.022.025.046.051.07.08l-.132-.147.062.067zm-.278-.305l-.115-.124h.002c.042.044.078.086.114.124zm.356-.884c.168.171.332.347.491.526l-.002.004a12.599 12.599 0 00-.489-.528v-.002z" fill="#F5C97E"/><path d="M46 19.026l6.164 1.056.176-.352-6.34-.704zM47.32 16.032l5.813 2.377.264-.352-6.076-2.025zM48.554 13.214l5.9 3.61.264-.352-6.164-3.258zM50.227 10.66l5.547 4.755.265-.264-5.812-4.49zM52.428 8.547l4.931 5.724.265-.264-5.196-5.46zM54.718 6.522l4.138 6.868.529-.264-4.667-6.604zM57.535 5.201l2.995 7.397.44-.176-3.434-7.22zM60.353 4.409l1.938 7.66.352-.088-2.29-7.572zM63.171 3.616l.793 8.277h.352l-1.145-8.277zM66.077 3l-.352 8.63h.352V3zM68.983 3.704l-1.497 8.101.352.088 1.145-8.189zM71.889 4.32l-2.906 7.75.528.175 2.378-7.924zM74.707 5.29l-4.05 7.308h-.089l.529.176 3.61-7.485zM77.349 6.786l-4.932 6.516.353.088 4.579-6.604zM79.814 8.46l-5.812 5.723.353.176 5.46-5.9zM79.022 12.598c-.705.47-3.311 2.57-3.523 2.641l.353.44 3.17-3.081zM84.13 14.975l-6.517 2.554.264.352 6.252-2.906zM84.657 17.88l-5.811 1.322.176.352 5.635-1.673zM85.186 20.875l-5.372.264v.352l5.372-.616z" fill="#F5C97E"/></svg>