<svg width="47" height="39" fill="none" xmlns="http://www.w3.org/2000/svg"><path d="M38.458 3.244C40.836-.806 46.988.223 47 .162c-.264 1.409-1.673 2.642-2.378 3.258-.563.493-1.585.676-2.025.705.282.141.528.353.616.44-.213.07-1.497.147-2.113.176l.968.529c-.499.235-1.69 1.003-2.465 2.2-.775 1.198-2.318 1.556-2.994 1.586l1.409.176c-.916 1.479-3.258 2.26-4.315 2.465l1.41.088c-1.068.593-2.882 1.071-3.954 1.313.623-1.099 2.117-3.306 5.274-6.331 2.664-2.554 6.34-4.755 7.485-5.283-1.438.498-4.878 2.289-7.837 5.106-2.744 2.613-4.68 5.066-5.525 6.274-.014-.249-.003-.665.065-1.342.141-1.41.411-2.584.529-2.995l.175 1.233c.423-2.184 1.937-3.786 2.642-4.315l.089 1.585c.264-2.553 2.465-3.521 4.402-5.018v1.232zM19.762 8.637c4.164 0 7.936 1.677 10.68 4.391a13.75 13.75 0 00-.173.254c-.108.17-.21.335-.309.492a14.272 14.272 0 00-10.198-4.27c-7.906 0-14.316 6.41-14.316 14.315 0 7.905 6.41 14.313 14.316 14.313 7.905 0 14.314-6.408 14.314-14.313a14.26 14.26 0 00-3.625-9.52 13.038 13.038 0 00.46-.784 15.126 15.126 0 014.033 10.303C34.944 32.203 28.147 39 19.762 39 11.377 39 4.579 32.203 4.579 23.82c0-8.385 6.798-15.182 15.183-15.182zM14.4 36.153c2.515 1.086 5.055 1.236 7.086 1.001-.564.073-1.14.11-1.724.11-1.906 0-3.719-.397-5.362-1.111zm10.432.125c-.738.355-1.916.711-3.346.876 1.169-.15 2.29-.45 3.345-.88l.001.004zm-5.07-25.906a13.41 13.41 0 019.727 4.162c-.289.43-1.184 2.162-1.597 2.975.07-.005 1.111-1.127 2.06-2.466a13.395 13.395 0 013.257 8.776c0 5.632-3.464 10.454-8.378 12.456l-.087-.438c-1.057-.634-2.847-2.847-3.61-3.874-.07-3.028.675-3.962 1.056-4.05 3.17.351 3.083-.088 3.347-.352.211-.212.03-.91-.088-1.234.563-.422.646-.587.616-.616l-.176-.352c.493-.282.499-.47.44-.529l-.264-.528c.986-.282 1.057-.587.97-.704-.441-.528-1.322-1.85-1.322-2.201-.07-.212.206-.616.352-.792v-2.026c-.352-.03-.656-.589-.352-.969.563-.704.264-1.383.088-1.584-.265-.303-4.244-2.589-6.428-2.73-2.184-.14-4.198 1.174-4.932 1.849-.264-.264-.705-.617-1.409-.529-2.042.494-2.2 2.26-2.024 3.082-.206.294-.564 1.075-.353 1.85.212.774 1.32 1.32 1.849 1.496-.07 2.183 1.585 3.757 2.378 4.314-.07.212-.94.764-1.322.97.353.14 1.087-.353 1.41-.617-.141.211-.705 1.086-.969 1.497.282-.14.998-.998 1.321-1.409-.14.493-.528 1.439-.704 1.85.423-.283.998-1.645 1.233-2.29.352 1.144.528 2.29-.97 4.666-1.408 2.026-2.289 3.17-2.905 4.755.138.1.278.196.418.288a13.434 13.434 0 01-6.08-11.25c0-7.426 6.02-13.446 13.448-13.446zM14.4 36.152l-.112-.048.112.049zm-.687-.322zm-.56-.3zm-.12-.067zm-.558-.342l-.08-.053.08.053zm17.407-20.158c.022.025.046.051.07.08l-.132-.147.062.067zm-.277-.305l-.116-.124h.002c.042.044.078.086.114.124zm.355-.883c.168.17.332.346.491.525l-.002.004a12.599 12.599 0 00-.489-.529z" fill="#F5C97E"/><path d="M0 16.026l6.164 1.056.176-.352L0 16.026zM1.32 13.032l5.813 2.377.264-.352-6.076-2.025zM2.554 10.214l5.9 3.61.264-.352-6.164-3.258zM4.227 7.66l5.547 4.755.265-.264-5.812-4.49zM6.428 5.547l4.931 5.724.265-.264-5.196-5.46zM8.718 3.522l4.138 6.868.529-.264-4.667-6.604zM11.536 2.201l2.994 7.397.44-.176-3.434-7.22zM14.353 1.409l1.938 7.66.352-.088-2.29-7.572zM17.171.616l.793 8.277h.352L17.171.616zM20.077 0l-.352 8.63h.352V0zM22.983.704l-1.497 8.101.352.088L22.983.704zM25.889 1.32l-2.906 7.75.528.175 2.378-7.924zM28.707 2.29l-4.05 7.308h-.089l.528.176 3.61-7.485zM31.349 3.786l-4.932 6.516.353.088 4.579-6.604zM33.814 5.46l-5.812 5.723.353.176 5.46-5.9zM33.022 9.598c-.705.47-3.311 2.57-3.523 2.641l.353.44 3.17-3.081zM38.13 11.975l-6.517 2.554.264.352 6.252-2.906zM38.657 14.88l-5.811 1.322.176.352 5.635-1.673zM39.186 17.875l-5.372.264v.352l5.372-.616z" fill="#F5C97E"/></svg>