<svg width="127" height="127" fill="none" xmlns="http://www.w3.org/2000/svg"><path d="M63.407 0l.892 55.293L77.057 1.485 66.044 55.677 90.07 5.87 67.663 56.427l34.172-43.479-32.751 44.559 42.72-35.116-41.565 36.476 49.271-25.11-48.434 26.688 53.516-13.933-53.039 15.652 55.261-2.102-55.164 3.885 54.42 9.826-54.709-8.065 51.036 21.296L70.7 67.367l45.265 31.768-46.267-30.29 37.378 40.756-38.673-39.53 27.741 47.839-29.271-46.918 16.81 52.684L65.18 71.562l5.091 55.066-6.865-54.873-6.866 54.873 5.091-55.066-18.5 52.114L59.94 70.992 30.669 117.91l27.742-47.838L19.738 109.6l37.377-40.757L10.85 99.135l45.264-31.768L4.418 87.004l51.036-21.296-54.71 8.065 54.421-9.826L0 60.062l55.26 2.102L2.222 46.512l53.517 13.932L7.304 33.757l49.27 25.111L15.01 22.391l42.72 35.116-32.752-44.559 34.173 43.479L36.744 5.869 60.77 55.677 49.756 1.485l12.758 53.808L63.407 0z" fill="#F5C97E"/></svg>