<svg width="52" height="5223" fill="none" xmlns="http://www.w3.org/2000/svg"><path d="M23.3 584.475a3.5 3.5 0 004.949 0l22.274-22.274a3.5 3.5 0 00-4.95-4.95l-19.8 19.799-19.798-19.799a3.5 3.5 0 10-4.95 4.95L23.3 584.475zM25.773 42h-3.5v540h7V42h-3.5z" fill="#F5C97E"/><path d="M23.299 1158.47a3.494 3.494 0 004.95 0l22.274-22.27a3.5 3.5 0 000-4.95 3.494 3.494 0 00-4.95 0l-19.8 19.8-19.798-19.8a3.5 3.5 0 00-4.95 4.95l22.274 22.27zM25.774 582h-3.5v574h7V582h-3.5z" fill="#F5C97E"/><path d="M23.299 1732.47a3.494 3.494 0 004.95 0l22.274-22.27a3.5 3.5 0 000-4.95 3.494 3.494 0 00-4.95 0l-19.8 19.8-19.798-19.8a3.5 3.5 0 00-4.95 4.95l22.274 22.27zM25.774 1156h-3.5v574h7v-574h-3.5z" fill="#F5C97E"/><path d="M23.299 2306.47a3.494 3.494 0 004.95 0l22.274-22.27a3.5 3.5 0 000-4.95 3.494 3.494 0 00-4.95 0l-19.8 19.8-19.798-19.8a3.5 3.5 0 00-4.95 4.95l22.274 22.27zM25.774 1730h-3.5v574h7v-574h-3.5z" fill="#F5C97E"/><path d="M23.299 2874.47a3.494 3.494 0 004.95 0l22.274-22.27a3.5 3.5 0 000-4.95 3.494 3.494 0 00-4.95 0l-19.8 19.8-19.798-19.8a3.5 3.5 0 00-4.95 4.95l22.274 22.27zM25.774 2298h-3.5v574h7v-574h-3.5z" fill="#F5C97E"/><path d="M23.299 3448.47a3.494 3.494 0 004.95 0l22.274-22.27a3.5 3.5 0 000-4.95 3.494 3.494 0 00-4.95 0l-19.8 19.8-19.798-19.8a3.5 3.5 0 00-4.95 4.95l22.274 22.27zM25.774 2872h-3.5v574h7v-574h-3.5z" fill="#F5C97E"/><path transform="rotate(-45.227 7.138 25.378)" stroke="#F5C97E" stroke-width="9" d="M7.138 25.378H33.922V52.162H7.138z"/><path d="M23.299 3939.47a3.494 3.494 0 004.95 0l22.274-22.27a3.5 3.5 0 000-4.95 3.494 3.494 0 00-4.95 0l-19.8 19.8-19.798-19.8a3.5 3.5 0 00-4.95 4.95l22.274 22.27zM25.774 3440h-3.5v497h7v-497h-3.5z" fill="#F5C97E"/><path d="M23.299 4436.47a3.494 3.494 0 004.95 0l22.274-22.27a3.5 3.5 0 000-4.95 3.494 3.494 0 00-4.95 0l-19.8 19.8-19.798-19.8a3.5 3.5 0 00-4.95 4.95l22.274 22.27zM25.774 3937h-3.5v497h7v-497h-3.5z" fill="#F5C97E"/><path d="M23.299 4926.47a3.494 3.494 0 004.95 0l22.274-22.27a3.5 3.5 0 000-4.95 3.494 3.494 0 00-4.95 0l-19.8 19.8-19.798-19.8a3.5 3.5 0 00-4.95 4.95l22.274 22.27zM25.774 4427h-3.5v497h7v-497h-3.5z" fill="#F5C97E"/><path d="M23.299 5221.47a3.494 3.494 0 004.95 0l22.274-22.27a3.5 3.5 0 000-4.95 3.494 3.494 0 00-4.95 0l-19.8 19.8-19.798-19.8a3.5 3.5 0 00-4.95 4.95l22.274 22.27zM25.774 4722h-3.5v497h7v-497h-3.5z" fill="#F5C97E"/></svg>